<?xml version="1.0" encoding="utf-8"?>
<!-- Generator: Adobe Illustrator 15.1.0, SVG Export Plug-In . SVG Version: 6.00 Build 0)  -->
<!DOCTYPE svg PUBLIC "-//W3C//DTD SVG 1.1//EN" "http://www.w3.org/Graphics/SVG/1.1/DTD/svg11.dtd">
<svg version="1.1" id="Layer_1" xmlns="http://www.w3.org/2000/svg" xmlns:xlink="http://www.w3.org/1999/xlink" x="0px" y="0px"
	 width="100px" height="100px" viewBox="0 0 100 100" enable-background="new 0 0 100 100" xml:space="preserve">
<g id="surface1">
	<path fill="#FF7314" d="M50,4c-1.43,0-2.859,0.359-4.133,1.078L12.18,24.008C9.602,25.453,8,28.164,8,31.07V68.93
		c0,2.906,1.602,5.617,4.18,7.063l33.688,18.93C47.141,95.641,48.57,96,50,96s2.859-0.359,4.133-1.078L87.82,76
		c2.578-1.453,4.18-4.164,4.18-7.07V31.07c0-2.906-1.602-5.617-4.18-7.063L54.133,5.078C52.859,4.359,51.43,4,50,4z M50,26
		c7.563,0,14.555,3.508,19.086,9.477l-8.766,5.078C57.688,37.672,53.945,36,50,36c-7.719,0-14,6.281-14,14s6.281,14,14,14
		c3.945,0,7.688-1.672,10.32-4.555l8.766,5.078C64.555,70.492,57.563,74,50,74c-13.234,0-24-10.766-24-24S36.766,26,50,26z M70,40h4
		v4h4v-4h4v4h4v4h-4v4h4v4h-4v4h-4v-4h-4v4h-4v-4h-4v-4h4v-4h-4v-4h4V40z M74,48v4h4v-4H74z"/>
</g>
</svg>
